<svg xmlns="http://www.w3.org/2000/svg" width="243" height="60" viewBox="0 0 243 60"><g><g><g><g><path fill="#fff" d="M0 54.238c.062-.237.133-.47.18-.71.42-2.086 1.437-3.895 2.61-5.625 2.204-3.244 4.874-6.083 7.71-8.772 6.136-5.82 12.898-10.838 19.95-15.477A196.693 196.693 0 0 1 52.648 11.04c6.043-2.932 12.22-5.546 18.63-7.58 3.13-.996 6.296-1.845 9.537-2.375 1.23-.2 2.48-.277 3.72-.418.165-.019.32-.082.482-.125h1.974c.503.075 1.005.15 1.506.228 1.326.212 2.607.545 3.658 1.448 1.176 1.01 1.535 2.33 1.334 3.811-.365 2.644-1.741 4.833-3.252 6.94-2.491 3.465-5.471 6.484-8.622 9.34-8.147 7.384-17.165 13.566-26.607 19.15-6.811 4.03-13.832 7.655-21.104 10.778-5.378 2.311-10.855 4.344-16.54 5.775-2.331.587-4.686 1.053-7.085 1.29-2.207.22-4.401.284-6.558-.31-1.454-.403-2.702-1.106-3.327-2.582-.168-.394-.263-.818-.392-1.23zm18.856-4.218c.005 1.703.74 2.723 2.404 3.025a9.624 9.624 0 0 0 2.785.06c2.044-.246 3.983-.927 5.88-1.7 4.488-1.826 8.67-4.219 12.7-6.883 9.27-6.127 17.743-13.19 25.073-21.575 2.353-2.695 4.526-5.527 6.168-8.725.795-1.55 1.493-3.146 1.41-4.95-.055-1.144-.56-2.03-1.643-2.465a5.714 5.714 0 0 0-1.676-.37c-1.711-.122-3.356.278-4.972.785-4.101 1.291-7.888 3.261-11.573 5.441-5.837 3.454-11.29 7.447-16.471 11.82-5.11 4.313-9.925 8.924-14.127 14.143-1.89 2.346-3.64 4.787-4.915 7.533-.57 1.23-1.03 2.485-1.043 3.861"/></g><g><path fill="#fff" d="M36.504 39.81c-.82-.007-1.15-.412-.836-1.087.397-.859.866-1.706 1.438-2.456 1.975-2.593 4.358-4.798 6.814-6.922 3.24-2.799 6.642-5.385 10.335-7.568 1.508-.89 3.035-1.759 4.777-2.14.137-.029.276-.05.416-.055.76-.015 1.11.376.793 1.053-.423.898-.908 1.791-1.512 2.573-2.106 2.73-4.644 5.045-7.258 7.271-3.142 2.674-6.434 5.15-10.001 7.235-1.458.853-2.936 1.68-4.616 2.04-.152.032-.308.048-.35.055"/></g><g><path fill="#fff" d="M176.484 25.825c-.654.826-1.262 1.597-1.874 2.364-2.442 3.061-4.884 6.118-7.316 9.185-.301.376-.598.578-1.126.573a450.379 450.379 0 0 0-8.463-.008c-.438.002-.57-.13-.563-.562.02-1.614.008-3.227.007-4.84v-.703c-.231.2-.363.293-.47.407-1.657 1.774-3.32 3.547-4.963 5.332-.245.265-.5.366-.858.364a778.052 778.052 0 0 0-8.368.002c-.44.003-.552-.112-.528-.562.064-1.246.05-2.496.09-3.746.056-1.797.13-3.595.194-5.392.026-.685.064-1.373.07-2.058.004-.31.124-.405.42-.405 2.619.007 5.238.01 7.854 0 .357-.003.41.166.405.463-.036 1.786-.063 3.57-.093 5.355-.002.164 0 .328 0 .49.044.02.088.036.134.053.399-.468.8-.935 1.196-1.405 1.329-1.582 2.652-3.172 3.993-4.743.109-.127.35-.198.53-.2 1.85-.013 3.699 0 5.549-.016.373-.002.492.125.488.49-.011 1.77-.006 3.541-.002 5.311 0 .195.028.391.054.726.224-.246.36-.384.479-.535 1.468-1.892 2.926-3.793 4.404-5.677.116-.147.346-.293.524-.293 2.662-.02 5.328-.013 7.99-.011.048 0 .094.015.243.041"/></g><g><path fill="#fff" d="M243.04 22.763c-.51 1.146-1.006 2.273-1.507 3.4-1.655 3.713-3.32 7.423-4.957 11.145-.205.468-.452.64-.974.632-2.49-.03-4.98-.014-7.472-.014h-.632c.193-.645.359-1.199.56-1.885-.253.114-.403.173-.546.24a18.267 18.267 0 0 1-6.541 1.859c-1.26.114-2.497.114-3.702-.308-1.542-.537-2.571-1.912-2.502-3.499.047-1.057.48-2.038 1.013-2.947 1.913-3.258 4.674-5.463 8.352-6.356 2.69-.655 5.058.213 7.132 1.965l.438.375c.4-.778.776-1.494 1.145-2.216.334-.655.677-1.306.986-1.974.149-.317.35-.411.694-.41 2.16.009 4.32-.001 6.484-.006zm-16.79 11.611c.335-.043.643-.104.953-.117 1.633-.07 2.562-1.297 2.912-2.514.196-.683-.15-1.315-.846-1.41-.763-.104-1.557-.178-2.315-.083-1.233.152-2.185.825-2.706 1.99-.39.876.073 1.772 1.004 1.99.332.077.677.098.998.144"/></g><g><path fill="#fff" d="M104.847 28.067c-.453.03-.876.046-1.296.082-2.294.2-3.9 2.212-3.602 4.507.113.866.534 1.396 1.393 1.551.608.111 1.246.1 1.869.09 2.816-.046 4.032-2.54 4.216-4.368.096-.934-.468-1.599-1.395-1.765-.398-.07-.81-.068-1.185-.097m-4.71 10.56c-2.28-.05-3.892-.12-5.456-.57-2.744-.789-4.037-2.803-3.503-5.607.423-2.218 1.473-4.187 3.014-5.806 1.798-1.89 4.118-2.923 6.689-3.223a57.992 57.992 0 0 1 10.316-.294c1.209.076 2.386.313 3.463.927 1.73.991 2.383 2.436 1.947 4.391-.28 1.243-.88 2.344-1.556 3.402-.988 1.538-2.141 2.931-3.645 4.005-1.906 1.363-4.058 2.094-6.362 2.357-1.85.213-3.71.32-4.906.417"/></g><g><path fill="#fff" d="M184.479 34.371c.342-.043.665-.099.99-.117 1.478-.075 2.517-1.183 2.855-2.562.168-.69-.153-1.263-.843-1.36-.765-.1-1.556-.174-2.315-.084-1.144.133-2.044.754-2.61 1.782-.566 1.03-.096 2.002 1.054 2.221.289.057.586.081.869.12m1.298 3.521c.188-.628.349-1.172.552-1.847-.264.115-.402.167-.534.231a18.102 18.102 0 0 1-6.586 1.864c-1.213.107-2.406.114-3.567-.274-2.037-.677-3.025-2.59-2.38-4.628.826-2.594 2.493-4.572 4.674-6.128 1.486-1.06 3.078-1.914 4.929-2.184 2.103-.307 4 .197 5.744 1.36.463.31.885.68 1.38 1.065.282-.52.569-1.002.806-1.505.156-.329.356-.448.723-.445 1.74.016 3.479 0 5.218-.003 1.077-.002 2.153-.002 3.275-.002-.043.115-.084.258-.143.394-1.707 3.898-3.417 7.794-5.116 11.694-.136.314-.297.452-.658.45-2.616-.015-5.233-.008-7.851-.01-.134 0-.27-.016-.466-.032"/></g><g><path fill="#fff" d="M114.25 37.892l.975-2.462c1.227-3.096 2.459-6.189 3.67-9.292.14-.358.328-.462.694-.452 1.767.048 3.534.061 5.304.106.807.018 1.614.081 2.472.125l-.364 1.29c.233-.042.464-.012.553-.11.74-.823 1.757-1.07 2.757-1.295a24.294 24.294 0 0 1 6.894-.556c.742.048 1.513.29 2.189.612 1.266.613 1.718 1.973 1.164 3.523-.452 1.264-1.044 2.48-1.584 3.711-.653 1.49-1.318 2.975-1.971 4.466-.104.237-.223.375-.514.374-2.68-.01-5.358-.006-8.038-.008-.045 0-.091-.02-.21-.047.162-.365.314-.714.469-1.064.615-1.385 1.237-2.772 1.842-4.162.13-.298.238-.616.295-.935.206-1.15-.278-1.772-1.43-1.96-1.25-.204-3.193 1.03-3.602 1.953-.875 1.971-1.875 3.888-2.815 5.83-.12.246-.25.395-.558.394-2.633-.012-5.265-.007-7.898-.007-.073-.002-.15-.017-.294-.034"/></g><g><path fill="#fff" d="M216.577 25.785c-.53 1.378-1.012 2.647-1.506 3.911-.46 1.181-.467 1.193-1.73 1.174-1.288-.018-2.562.056-3.813.384-1.264.332-2.284.983-2.76 2.25-.5 1.328-.945 2.68-1.386 4.028-.085.263-.171.399-.466.399-2.775-.007-5.55-.005-8.321-.007-.057 0-.117-.019-.233-.042.329-.785.652-1.544.972-2.301 1.304-3.083 2.615-6.163 3.903-9.254.168-.405.375-.56.827-.554 2.005.03 4.012.013 6.016.013.167 0 .334.017.543.026-.128.798-.251 1.543-.371 2.29.035.02.069.042.104.064.096-.082.189-.162.286-.237.742-.593 1.447-1.242 2.243-1.754.406-.258.968-.35 1.467-.371 1.205-.052 2.413-.019 3.618-.019z"/></g></g><g><path fill="#fff" d="M92.775 45.935h-2.117v-.93h5.265v.93h-2.108v5.514h-1.04z"/></g><g><path fill="#fff" d="M108.2 51.449h-4.76v-6.444h4.732v1.004h-3.7v1.74h3.553v.956h-3.553v1.731h3.727z"/></g><g><path fill="#fff" d="M121.434 50.62c-.644.638-1.451.957-2.421.957-.564 0-1.068-.092-1.51-.277a2.803 2.803 0 0 1-1.067-.745 3.289 3.289 0 0 1-.612-1.049 3.645 3.645 0 0 1-.207-1.234c0-.435.07-.85.21-1.246.143-.397.348-.755.618-1.078.27-.321.627-.578 1.072-.767.445-.19.944-.287 1.496-.287.92 0 1.706.326 2.357.976l-.691.664c-.448-.442-1.003-.664-1.666-.664-.767 0-1.356.237-1.767.71a2.445 2.445 0 0 0-.608 1.684c.007.65.209 1.203.608 1.662.399.455.988.685 1.767.685.307 0 .614-.061.92-.185a2.32 2.32 0 0 0 .792-.515z"/></g><g><path fill="#fff" d="M133.47 51.449v-2.68h-3.405v2.68h-1.03v-6.444h1.03v2.808h3.406v-2.808h1.022v6.444z"/></g><g><path fill="#fff" d="M147.11 49.589v-4.584h1.03v6.444h-.782l-3.654-4.547v4.547h-1.04v-6.444h.792z"/></g><g><path fill="#fff" d="M157.08 49.124c.09.273.223.525.4.755.179.23.417.414.715.552.297.138.636.207 1.017.207.754 0 1.322-.225 1.702-.676.38-.45.57-1.015.57-1.69 0-.417-.074-.802-.225-1.158a2.107 2.107 0 0 0-.754-.907c-.353-.25-.778-.377-1.275-.382-.724 0-1.287.226-1.69.68-.401.454-.602 1.044-.602 1.768.006.295.054.578.143.852m4.57-3.25c.57.653.856 1.446.856 2.38 0 .441-.07.86-.207 1.256-.138.395-.338.75-.6 1.062-.26.313-.605.56-1.034.742-.43.181-.914.271-1.454.271a3.61 3.61 0 0 1-1.455-.28 2.749 2.749 0 0 1-1.035-.75 3.412 3.412 0 0 1-.6-1.054 3.69 3.69 0 0 1-.206-1.239c0-.982.31-1.79.93-2.425.62-.635 1.414-.953 2.384-.953 1.043.006 1.85.336 2.42.99"/></g><g><path fill="#fff" d="M171.313 45.005v5.486h3.396v.958h-4.427v-6.444z"/></g><g><path fill="#fff" d="M182.849 49.124c.089.273.223.525.4.755.178.23.416.414.714.552.297.138.636.207 1.017.207.755 0 1.322-.225 1.703-.676.38-.45.57-1.015.57-1.69 0-.417-.075-.802-.225-1.158a2.11 2.11 0 0 0-.755-.907c-.353-.25-.778-.377-1.275-.382-.724 0-1.287.226-1.69.68-.401.454-.602 1.044-.602 1.768.007.295.054.578.143.852m4.57-3.25c.57.653.856 1.446.856 2.38 0 .441-.07.86-.207 1.256-.138.395-.338.75-.6 1.062-.26.313-.604.56-1.034.742-.43.181-.914.271-1.454.271-.54 0-1.025-.094-1.454-.28a2.745 2.745 0 0 1-1.036-.75 3.41 3.41 0 0 1-.598-1.054 3.69 3.69 0 0 1-.207-1.239c0-.982.31-1.79.929-2.425.62-.635 1.415-.953 2.384-.953 1.043.006 1.85.336 2.42.99"/></g><g><path fill="#fff" d="M200.782 46.486a2.27 2.27 0 0 0-.805-.51 2.623 2.623 0 0 0-.935-.18c-.73 0-1.31.24-1.74.719-.43.478-.64 1.07-.634 1.776 0 .651.199 1.2.598 1.647.399.448.99.672 1.776.672.595 0 1.12-.19 1.574-.57v-1.307h-1.795v-.92h2.752v2.641c-.681.748-1.524 1.123-2.531 1.123-.57 0-1.078-.09-1.523-.272-.445-.18-.8-.426-1.063-.736a3.256 3.256 0 0 1-.6-1.04 3.73 3.73 0 0 1-.201-1.238c0-.976.3-1.794.902-2.453.6-.66 1.43-.989 2.485-.989.933 0 1.728.325 2.384.975z"/></g><g><path fill="#fff" d="M209.441 51.449v-6.443h1.022v6.443z"/></g><g><path fill="#fff" d="M223.393 51.449h-4.758v-6.444h4.73v1.004h-3.7v1.74h3.554v.956h-3.553v1.731h3.727z"/></g><g><path fill="#fff" d="M235.118 46.431a1.54 1.54 0 0 0-.658-.52 2.416 2.416 0 0 0-.935-.197c-.441 0-.8.087-1.076.262-.277.175-.415.412-.415.713 0 .282.134.488.4.617.268.13.656.23 1.165.304.38.055.706.12.976.193.27.074.537.182.8.327.264.144.465.34.603.59.138.248.208.543.208.887 0 .46-.134.844-.401 1.151a2.176 2.176 0 0 1-.975.65 4.165 4.165 0 0 1-1.293.187c-1.32 0-2.243-.487-2.771-1.463l.773-.516c.417.706 1.086 1.06 2.006 1.06.283 0 .54-.032.774-.093.233-.062.434-.177.603-.345a.86.86 0 0 0 .253-.63.768.768 0 0 0-.438-.723c-.291-.157-.695-.269-1.21-.336a7.682 7.682 0 0 1-.76-.129 4.771 4.771 0 0 1-.667-.212 1.882 1.882 0 0 1-.566-.33 1.511 1.511 0 0 1-.358-.503 1.646 1.646 0 0 1-.143-.704 1.607 1.607 0 0 1 .81-1.427c.245-.14.509-.247.79-.317.284-.07.578-.106.885-.106 1.147 0 1.948.362 2.402 1.086z"/></g></g></g></svg>